<?xml version="1.0" standalone="no"?>
<!DOCTYPE svg PUBLIC "-//W3C//DTD SVG 20010904//EN"
 "http://www.w3.org/TR/2001/REC-SVG-20010904/DTD/svg10.dtd">
<svg version="1.0" xmlns="http://www.w3.org/2000/svg"
 width="1617.000000pt" height="1617.000000pt" viewBox="0 0 1617.000000 1617.000000"
 preserveAspectRatio="xMidYMid meet">
<metadata>
Created by potrace 1.14, written by Peter Selinger 2001-2017
</metadata>
<g transform="translate(0.000000,1617.000000) scale(0.100000,-0.100000)"
fill="#000000" stroke="none">
<path d="M7738 16165 c-2 -1 -61 -6 -133 -9 -71 -4 -143 -9 -160 -11 -16 -2
-61 -7 -100 -10 -38 -3 -83 -7 -100 -9 -16 -2 -61 -7 -100 -11 -38 -4 -77 -8
-85 -10 -8 -1 -42 -6 -75 -10 -32 -4 -67 -8 -76 -10 -9 -2 -34 -6 -55 -9 -143
-23 -298 -51 -419 -77 -77 -17 -150 -32 -163 -35 -76 -15 -361 -90 -472 -124
-148 -45 -295 -91 -310 -97 -8 -3 -19 -7 -25 -9 -55 -15 -458 -170 -519 -200
-16 -8 -33 -14 -37 -14 -7 0 -103 -43 -219 -98 -19 -9 -37 -17 -40 -17 -14 -1
-435 -218 -438 -226 -2 -5 -12 -9 -23 -9 -10 0 -19 -4 -19 -9 0 -5 -12 -14
-27 -20 -28 -10 -62 -30 -158 -89 -27 -17 -74 -43 -102 -58 -29 -15 -53 -31
-53 -36 0 -4 -5 -8 -10 -8 -6 0 -23 -9 -38 -19 -15 -10 -88 -58 -162 -107 -74
-48 -136 -91 -138 -96 -2 -4 -10 -8 -18 -8 -8 0 -17 -7 -20 -15 -4 -8 -10 -15
-15 -15 -5 0 -37 -21 -71 -46 -35 -25 -74 -53 -87 -62 -13 -9 -35 -27 -49 -39
-14 -13 -28 -23 -31 -23 -3 0 -20 -13 -38 -28 -17 -15 -44 -36 -59 -47 -30
-22 -146 -115 -154 -125 -3 -3 -25 -21 -50 -40 -24 -19 -56 -46 -71 -60 -15
-14 -40 -36 -56 -49 -52 -44 -196 -176 -265 -242 -37 -36 -70 -64 -73 -61 -3
3 -5 1 -5 -4 0 -6 -55 -66 -122 -135 -151 -154 -238 -249 -238 -261 0 -5 -4
-6 -10 -3 -5 3 -10 1 -10 -5 0 -6 -10 -21 -23 -33 -12 -12 -45 -49 -72 -82
-63 -75 -97 -114 -112 -131 -7 -7 -13 -16 -13 -20 0 -4 -10 -16 -23 -28 -12
-11 -76 -93 -142 -181 -66 -88 -122 -162 -125 -165 -3 -3 -16 -21 -28 -40 -11
-20 -31 -47 -43 -60 -11 -14 -28 -38 -36 -55 -9 -16 -19 -32 -23 -35 -11 -8
-260 -397 -260 -406 0 -3 -16 -30 -35 -60 -19 -30 -35 -57 -35 -59 0 -3 -10
-22 -23 -43 -13 -20 -47 -82 -77 -137 -29 -55 -68 -128 -86 -161 -18 -34 -31
-64 -28 -66 2 -3 -2 -11 -11 -18 -8 -7 -15 -16 -15 -20 0 -4 -29 -69 -65 -144
-36 -75 -65 -138 -65 -141 0 -2 -14 -35 -32 -72 -17 -38 -32 -70 -32 -73 -1
-3 -22 -57 -48 -120 -47 -116 -59 -147 -64 -165 -2 -5 -22 -59 -45 -120 -42
-112 -146 -432 -153 -472 -3 -13 -7 -26 -10 -31 -4 -6 -76 -279 -91 -342 -2
-8 -10 -44 -19 -80 -8 -36 -17 -76 -20 -90 -2 -14 -9 -45 -15 -70 -13 -61 -21
-98 -26 -140 -3 -19 -7 -42 -10 -50 -2 -8 -7 -31 -10 -50 -3 -19 -11 -62 -17
-95 -12 -66 -13 -77 -22 -150 -4 -27 -8 -61 -11 -75 -8 -48 -16 -108 -20 -151
-2 -24 -7 -66 -10 -94 -3 -27 -7 -79 -10 -115 -3 -36 -8 -78 -10 -95 -26 -189
-26 -1076 -1 -1275 2 -14 7 -63 10 -110 4 -47 9 -98 11 -115 2 -16 9 -70 15
-120 21 -171 49 -354 65 -435 3 -14 8 -41 11 -60 3 -19 14 -75 24 -125 11 -49
21 -102 24 -118 3 -15 7 -35 10 -45 3 -9 7 -28 10 -42 19 -102 168 -642 193
-700 3 -8 7 -17 8 -20 18 -61 32 -101 83 -240 62 -169 135 -353 179 -450 13
-30 28 -64 33 -75 4 -11 35 -76 68 -145 32 -69 62 -135 66 -147 4 -13 12 -23
17 -23 5 0 9 -7 9 -15 0 -8 11 -34 23 -57 13 -24 50 -92 82 -153 32 -60 66
-121 75 -135 10 -14 21 -35 24 -48 4 -12 12 -22 17 -22 5 0 9 -5 9 -11 0 -10
71 -134 90 -156 5 -7 10 -15 10 -18 0 -4 14 -26 30 -50 17 -24 30 -46 30 -49
0 -2 34 -55 75 -116 41 -61 75 -113 75 -116 0 -2 7 -12 15 -21 8 -10 41 -56
74 -103 80 -113 92 -129 119 -161 12 -15 22 -31 22 -37 0 -6 3 -12 8 -14 7 -3
41 -43 82 -98 40 -53 121 -155 129 -160 3 -3 26 -30 51 -60 25 -30 49 -60 55
-66 5 -6 29 -33 51 -60 23 -27 65 -74 93 -104 28 -30 51 -58 51 -63 0 -4 5 -5
10 -2 6 3 10 1 10 -5 0 -14 360 -374 469 -470 41 -36 83 -74 95 -85 12 -12 50
-45 86 -75 36 -30 67 -57 70 -60 3 -3 41 -35 85 -70 44 -35 82 -67 85 -70 3
-3 50 -39 105 -80 55 -41 102 -78 103 -82 2 -5 8 -8 13 -8 5 0 20 -9 33 -21
22 -19 134 -99 221 -157 22 -15 42 -30 43 -34 2 -5 10 -8 18 -8 8 0 14 -4 14
-10 0 -5 5 -10 11 -10 5 0 36 -17 67 -39 70 -47 222 -141 228 -141 3 0 10 -5
17 -10 21 -18 145 -90 156 -90 5 0 11 -3 13 -7 2 -5 21 -17 43 -29 123 -65
201 -108 209 -115 6 -5 18 -9 27 -9 10 0 19 -3 21 -8 6 -13 299 -153 503 -240
143 -61 416 -168 450 -177 6 -1 17 -5 25 -8 54 -23 271 -93 435 -141 50 -14
104 -31 120 -36 59 -18 314 -80 456 -110 147 -32 187 -40 344 -66 50 -8 101
-17 115 -19 14 -3 45 -7 70 -11 25 -3 56 -7 70 -10 14 -2 49 -6 78 -10 29 -3
61 -7 70 -9 22 -4 120 -14 202 -20 36 -3 79 -7 95 -9 199 -27 1109 -27 1285
-1 14 2 61 7 105 10 94 8 144 13 194 19 20 3 61 8 91 11 30 4 69 8 85 11 17 3
41 7 55 9 14 2 45 7 70 10 25 4 81 13 125 21 44 8 94 17 110 19 17 3 41 7 55
10 32 7 67 14 105 21 29 5 191 41 230 51 11 2 36 8 55 13 30 6 92 23 340 91
19 5 42 12 50 14 8 2 15 4 15 5 0 1 7 3 15 5 8 2 44 13 80 25 36 11 85 27 110
34 91 27 440 156 505 186 11 5 45 19 75 30 30 12 78 32 108 46 29 13 54 24 56
24 2 0 47 20 99 45 53 25 101 45 107 45 5 0 10 5 10 10 0 6 5 10 11 10 13 0
365 176 419 210 31 20 172 100 175 100 2 0 194 117 245 150 8 5 77 51 153 102
76 51 146 98 155 103 22 13 32 21 67 50 17 14 33 25 37 25 4 0 13 6 20 12 7 7
40 33 73 57 63 47 236 182 245 191 3 3 25 21 50 40 25 19 57 46 71 60 14 14
40 36 58 50 18 13 43 33 55 45 13 11 60 54 106 95 46 41 169 161 274 265 160
159 227 229 371 389 6 6 35 40 65 76 30 36 58 67 61 70 6 5 70 85 124 154 17
21 37 46 45 56 64 77 220 289 220 299 0 5 6 14 13 20 27 22 357 527 357 546 0
2 14 24 30 48 17 25 30 49 30 55 0 5 7 15 15 22 8 7 13 16 10 20 -3 5 -1 12 5
15 6 4 27 39 47 78 19 40 38 74 42 77 5 5 174 338 176 350 1 3 14 32 29 65 26
56 74 164 116 260 9 22 34 83 54 135 21 52 44 111 52 130 24 61 73 201 110
315 19 61 38 117 41 125 4 8 7 17 8 20 7 23 29 97 31 105 1 6 14 49 28 96 14
47 27 97 30 110 3 13 13 51 22 84 9 33 18 67 19 75 14 60 68 299 71 315 2 11
8 43 14 70 5 28 12 62 14 78 3 15 7 35 10 45 3 9 7 39 10 65 3 27 8 52 10 55
2 4 7 30 10 57 3 28 12 95 20 150 8 55 18 129 21 165 4 36 8 72 10 80 2 13 7
68 21 225 14 174 18 297 18 620 0 320 -5 507 -19 645 -2 19 -6 71 -10 115 -3
44 -8 91 -10 105 -3 25 -10 84 -20 170 -10 84 -36 255 -55 360 -11 58 -21 116
-24 130 -3 22 -10 59 -20 110 -2 8 -6 26 -9 40 -4 14 -9 36 -12 50 -15 77 -26
126 -41 182 -9 35 -17 70 -19 78 -3 15 -16 62 -61 225 -13 50 -27 97 -29 105
-11 39 -75 240 -89 280 -9 25 -27 77 -40 115 -13 39 -38 106 -56 150 -17 44
-33 87 -35 95 -3 13 -41 105 -78 190 -5 14 -11 27 -12 30 -1 3 -9 22 -18 43
-9 20 -25 54 -34 75 -9 20 -17 39 -18 42 -4 19 -202 419 -256 517 -35 64 -88
157 -106 188 -7 11 -15 27 -19 35 -18 37 -238 386 -248 392 -6 4 -7 8 -3 8 4
0 -1 10 -13 22 -11 12 -20 28 -20 35 0 7 -3 13 -7 13 -5 0 -21 21 -38 48 -16
26 -34 52 -40 59 -5 6 -20 27 -33 45 -39 56 -116 163 -122 168 -3 3 -18 23
-35 45 -39 54 -47 63 -67 86 -10 10 -18 21 -18 24 0 5 -11 18 -53 68 -11 12
-33 39 -50 61 -18 21 -50 60 -71 85 -22 25 -47 54 -55 65 -9 10 -29 33 -46 52
-16 18 -59 66 -95 106 -35 40 -155 163 -265 273 -169 168 -237 233 -359 340
-50 44 -163 142 -173 150 -8 6 -26 21 -42 35 -16 14 -44 36 -62 50 -19 14 -41
33 -51 43 -10 9 -22 17 -27 17 -5 0 -11 3 -13 8 -2 4 -30 27 -63 52 -33 25
-69 53 -79 63 -11 9 -23 17 -27 17 -4 0 -14 6 -21 13 -31 32 -299 215 -483
332 -27 17 -63 40 -80 51 -48 30 -69 43 -85 50 -8 4 -26 15 -40 24 -14 10 -47
30 -75 44 -27 15 -63 35 -80 45 -16 10 -57 32 -90 50 -33 18 -66 38 -72 43 -7
6 -13 7 -13 4 0 -4 -12 1 -27 12 -27 18 -60 34 -75 36 -3 1 -9 4 -13 8 -22 22
-429 208 -626 286 -68 27 -133 53 -144 57 -11 5 -22 9 -25 10 -3 1 -16 6 -30
12 -58 24 -350 123 -363 123 -7 0 -17 3 -21 8 -4 4 -12 8 -17 8 -5 1 -10 2
-11 4 -2 1 -10 3 -18 5 -8 2 -69 20 -135 40 -66 20 -131 38 -145 41 -14 3 -58
14 -99 25 -41 12 -85 23 -99 25 -14 3 -29 7 -32 9 -4 2 -20 7 -36 9 -16 3 -40
8 -54 11 -14 3 -34 8 -45 10 -38 9 -65 15 -87 21 -13 3 -32 7 -43 8 -48 8 -91
17 -106 22 -10 2 -32 7 -50 10 -78 11 -92 14 -108 18 -9 3 -36 8 -61 11 -25 3
-56 8 -70 10 -14 2 -45 7 -70 10 -25 3 -56 8 -70 10 -117 18 -310 39 -470 50
-52 4 -115 9 -140 11 -49 6 -827 14 -832 9z"/>
</g>
</svg>
